<svg xmlns="http://www.w3.org/2000/svg" width="200" height="200" viewBox="0 0 200 200">
  <defs>
    <linearGradient id="goldGrad" x1="0%" y1="100%" x2="100%" y2="0%">
      <stop offset="0%" stop-color="#D4AF37"/>
      <stop offset="35%" stop-color="#FDF3CE"/>
      <stop offset="65%" stop-color="#D4AF37"/>
      <stop offset="100%" stop-color="#FDF3CE"/>
    </linearGradient>
    <linearGradient id="mysticGrad" x1="0%" y1="0%" x2="100%" y2="100%">
      <stop offset="0%" stop-color="#F1C4E1"/>
      <stop offset="50%" stop-color="#D4B5E8"/>
      <stop offset="100%" stop-color="#A2C2E8"/>
    </linearGradient>
    <radialGradient id="glow" cx="50%" cy="50%" r="50%">
      <stop offset="0%" stop-color="#FDF3CE" stop-opacity="0.6"/>
      <stop offset="100%" stop-color="#FDF3CE" stop-opacity="0"/>
    </radialGradient>
  </defs>
  <g transform="translate(100, 100)">
    <circle cx="0" cy="5" r="60" fill="url(#glow)"/><polygon points="0,-60 25,-10 25,40 0,70 -25,40 -25,-10" fill="url(#mysticGrad)"/><polygon points="0,-60 0,70 25,40 25,-10" fill="#ffffff" fill-opacity="0.4"/><polygon points="0,-60 25,-10 -25,-10" fill="url(#goldGrad)" fill-opacity="0.7"/><path d="M 0 -60 L 25 -10 L 25 40 L 0 70 L -25 40 L -25 -10 Z" fill="none" stroke="url(#goldGrad)" stroke-width="3" stroke-linejoin="round"/><line x1="0" y1="-60" x2="0" y2="70" stroke="url(#goldGrad)" stroke-width="2"/><line x1="-25" y1="-10" x2="25" y2="-10" stroke="url(#goldGrad)" stroke-width="2"/><path d="M -40 -32 Q -40 -20 -28 -20 Q -40 -20 -40 -8 Q -40 -20 -52 -20 Q -40 -20 -40 -32 Z" fill="#ffffff" opacity="0.8"/> <path d="M 30 40 Q 30 50 40 50 Q 30 50 30 60 Q 30 50 20 50 Q 30 50 30 40 Z" fill="#ffffff" opacity="0.8"/>
  </g>
</svg>
