<svg xmlns="http://www.w3.org/2000/svg" width="200" height="200" viewBox="0 0 200 200">
  <defs>
    <linearGradient id="goldGrad" x1="0%" y1="100%" x2="100%" y2="0%">
      <stop offset="0%" stop-color="#B8860B"/>
      <stop offset="35%" stop-color="#D4AF37"/>
      <stop offset="65%" stop-color="#B8860B"/>
      <stop offset="100%" stop-color="#D4AF37"/>
    </linearGradient>
    <linearGradient id="mysticGrad" x1="0%" y1="0%" x2="100%" y2="100%">
      <stop offset="0%" stop-color="#C2559B"/>
      <stop offset="50%" stop-color="#8B4FC7"/>
      <stop offset="100%" stop-color="#4A72C4"/>
    </linearGradient>
    <radialGradient id="glow" cx="50%" cy="50%" r="50%">
      <stop offset="0%" stop-color="#FDF3CE" stop-opacity="0.6"/>
      <stop offset="100%" stop-color="#FDF3CE" stop-opacity="0"/>
    </radialGradient>
  </defs>
  <g transform="translate(100, 100)">
    <circle cx="-20" cy="0" r="38" fill="url(#goldGrad)"/><circle cx="20" cy="0" r="38" fill="url(#mysticGrad)" opacity="0.85"/><path d="M 0 -15 Q 0 0 15 0 Q 0 0 0 15 Q 0 0 -15 0 Q 0 0 0 -15 Z" fill="#ffffff" opacity="0.8"/> <path d="M -40 32 Q -40 40 -32 40 Q -40 40 -40 48 Q -40 40 -48 40 Q -40 40 -40 32 Z" fill="#ffffff" opacity="0.8"/> <path d="M 40 -50 Q 40 -40 50 -40 Q 40 -40 40 -30 Q 40 -40 30 -40 Q 40 -40 40 -50 Z" fill="#ffffff" opacity="0.8"/>
  </g>
</svg>
