<svg xmlns="http://www.w3.org/2000/svg" width="200" height="200" viewBox="0 0 200 200">
  <defs>
    <linearGradient id="goldGrad" x1="0%" y1="100%" x2="100%" y2="0%">
      <stop offset="0%" stop-color="#D4AF37"/>
      <stop offset="35%" stop-color="#FDF3CE"/>
      <stop offset="65%" stop-color="#D4AF37"/>
      <stop offset="100%" stop-color="#FDF3CE"/>
    </linearGradient>
    <linearGradient id="mysticGrad" x1="0%" y1="0%" x2="100%" y2="100%">
      <stop offset="0%" stop-color="#F1C4E1"/>
      <stop offset="50%" stop-color="#D4B5E8"/>
      <stop offset="100%" stop-color="#A2C2E8"/>
    </linearGradient>
    <radialGradient id="glow" cx="50%" cy="50%" r="50%">
      <stop offset="0%" stop-color="#FDF3CE" stop-opacity="0.6"/>
      <stop offset="100%" stop-color="#FDF3CE" stop-opacity="0"/>
    </radialGradient>
  </defs>
  <g transform="translate(100, 100)">
    <path d="M -15 -45 A 45 45 0 1 1 -15 45 A 35 35 0 1 0 -15 -45 Z" fill="url(#goldGrad)"/><path d="M 15 -45 A 45 45 0 1 0 15 45 A 35 35 0 1 1 15 -45 Z" fill="url(#mysticGrad)" opacity="0.9"/><path d="M 0 -15 Q 0 0 15 0 Q 0 0 0 15 Q 0 0 -15 0 Q 0 0 0 -15 Z" fill="#ffffff" opacity="0.8"/> <path d="M -40 32 Q -40 40 -32 40 Q -40 40 -40 48 Q -40 40 -48 40 Q -40 40 -40 32 Z" fill="#ffffff" opacity="0.8"/> <path d="M 40 -50 Q 40 -40 50 -40 Q 40 -40 40 -30 Q 40 -40 30 -40 Q 40 -40 40 -50 Z" fill="#ffffff" opacity="0.8"/>
  </g>
</svg>
