<svg xmlns="http://www.w3.org/2000/svg" width="200" height="200" viewBox="0 0 200 200">
  <defs>
    <linearGradient id="goldGrad" x1="0%" y1="100%" x2="100%" y2="0%">
      <stop offset="0%" stop-color="#D4AF37"/>
      <stop offset="35%" stop-color="#FDF3CE"/>
      <stop offset="65%" stop-color="#D4AF37"/>
      <stop offset="100%" stop-color="#FDF3CE"/>
    </linearGradient>
    <linearGradient id="mysticGrad" x1="0%" y1="0%" x2="100%" y2="100%">
      <stop offset="0%" stop-color="#F1C4E1"/>
      <stop offset="50%" stop-color="#D4B5E8"/>
      <stop offset="100%" stop-color="#A2C2E8"/>
    </linearGradient>
    <radialGradient id="glow" cx="50%" cy="50%" r="50%">
      <stop offset="0%" stop-color="#FDF3CE" stop-opacity="0.6"/>
      <stop offset="100%" stop-color="#FDF3CE" stop-opacity="0"/>
    </radialGradient>
  </defs>
  <g transform="translate(100, 100)">
    <circle cx="0" cy="0" r="55" fill="url(#glow)"/><path d="M -65 0 Q 0 -45 65 0 Q 0 45 -65 0 Z" fill="url(#mysticGrad)" stroke="url(#goldGrad)" stroke-width="3"/><circle cx="0" cy="0" r="22" fill="#ffffff" opacity="0.9"/><circle cx="0" cy="0" r="14" fill="url(#goldGrad)"/><path d="M -50 -45 Q -50 -30 -35 -30 Q -50 -30 -50 -15 Q -50 -30 -65 -30 Q -50 -30 -50 -45 Z" fill="#ffffff" opacity="0.8"/> <path d="M 40 30 Q 40 40 50 40 Q 40 40 40 50 Q 40 40 30 40 Q 40 40 40 30 Z" fill="#ffffff" opacity="0.8"/> <path d="M -20 42 Q -20 50 -12 50 Q -20 50 -20 58 Q -20 50 -28 50 Q -20 50 -20 42 Z" fill="#ffffff" opacity="0.8"/>
  </g>
</svg>
