<svg xmlns="http://www.w3.org/2000/svg" width="200" height="200" viewBox="0 0 200 200">
  <defs>
    <linearGradient id="goldGrad" x1="0%" y1="100%" x2="100%" y2="0%">
      <stop offset="0%" stop-color="#D4AF37"/>
      <stop offset="35%" stop-color="#FDF3CE"/>
      <stop offset="65%" stop-color="#D4AF37"/>
      <stop offset="100%" stop-color="#FDF3CE"/>
    </linearGradient>
    <linearGradient id="mysticGrad" x1="0%" y1="0%" x2="100%" y2="100%">
      <stop offset="0%" stop-color="#F1C4E1"/>
      <stop offset="50%" stop-color="#D4B5E8"/>
      <stop offset="100%" stop-color="#A2C2E8"/>
    </linearGradient>
    <radialGradient id="glow" cx="50%" cy="50%" r="50%">
      <stop offset="0%" stop-color="#FDF3CE" stop-opacity="0.6"/>
      <stop offset="100%" stop-color="#FDF3CE" stop-opacity="0"/>
    </radialGradient>
  </defs>
  <g transform="translate(100, 100)">
    <circle cx="0" cy="0" r="55" fill="url(#glow)"/><path d="M 0 -75 Q 18 -22 75 0 Q 18 22 0 75 Q -18 22 -75 0 Q -18 -22 0 -75 Z" fill="url(#mysticGrad)" stroke="url(#goldGrad)" stroke-width="3"/><path d="M 0 -45 Q 12 -12 45 0 Q 12 12 0 45 Q -12 12 -45 0 Q -12 -12 0 -45 Z" fill="url(#goldGrad)"/><circle cx="0" cy="0" r="15" fill="#ffffff" opacity="0.9"/><path d="M 50 -65 Q 50 -50 65 -50 Q 50 -50 50 -35 Q 50 -50 35 -50 Q 50 -50 50 -65 Z" fill="#ffffff" opacity="0.8"/> <path d="M -40 40 Q -40 50 -30 50 Q -40 50 -40 60 Q -40 50 -50 50 Q -40 50 -40 40 Z" fill="#ffffff" opacity="0.8"/> <path d="M -60 -28 Q -60 -20 -52 -20 Q -60 -20 -60 -12 Q -60 -20 -68 -20 Q -60 -20 -60 -28 Z" fill="#ffffff" opacity="0.8"/> <path d="M 30 48 Q 30 60 42 60 Q 30 60 30 72 Q 30 60 18 60 Q 30 60 30 48 Z" fill="#ffffff" opacity="0.8"/>
  </g>
</svg>
