<svg xmlns="http://www.w3.org/2000/svg" width="200" height="200" viewBox="0 0 200 200">
  <defs>
    <linearGradient id="goldGrad" x1="0%" y1="100%" x2="100%" y2="0%">
      <stop offset="0%" stop-color="#D4AF37"/>
      <stop offset="35%" stop-color="#FDF3CE"/>
      <stop offset="65%" stop-color="#D4AF37"/>
      <stop offset="100%" stop-color="#FDF3CE"/>
    </linearGradient>
    <linearGradient id="mysticGrad" x1="0%" y1="0%" x2="100%" y2="100%">
      <stop offset="0%" stop-color="#F1C4E1"/>
      <stop offset="50%" stop-color="#D4B5E8"/>
      <stop offset="100%" stop-color="#A2C2E8"/>
    </linearGradient>
    <radialGradient id="glow" cx="50%" cy="50%" r="50%">
      <stop offset="0%" stop-color="#FDF3CE" stop-opacity="0.6"/>
      <stop offset="100%" stop-color="#FDF3CE" stop-opacity="0"/>
    </radialGradient>
  </defs>
  <g transform="translate(100, 100)">
    <circle cx="0" cy="0" r="55" fill="url(#mysticGrad)" opacity="0.4"/><circle cx="0" cy="0" r="55" fill="none" stroke="url(#goldGrad)" stroke-width="5"/><circle cx="0" cy="0" r="40" fill="none" stroke="#ffffff" stroke-width="2" stroke-dasharray="4 6"/><polygon points="0,-65 12,-20 0,-10 -12,-20" fill="url(#goldGrad)"/><polygon points="0,65 12,20 0,10 -12,20" fill="url(#goldGrad)"/><polygon points="-65,0 -20,12 -10,0 -20,-12" fill="url(#goldGrad)"/><polygon points="65,0 20,12 10,0 20,-12" fill="url(#goldGrad)"/><circle cx="0" cy="0" r="10" fill="#ffffff"/><path d="M 40 30 Q 40 40 50 40 Q 40 40 40 50 Q 40 40 30 40 Q 40 40 40 30 Z" fill="#ffffff" opacity="0.8"/> <path d="M -40 -48 Q -40 -40 -32 -40 Q -40 -40 -40 -32 Q -40 -40 -48 -40 Q -40 -40 -40 -48 Z" fill="#ffffff" opacity="0.8"/>
  </g>
</svg>
