<svg xmlns="http://www.w3.org/2000/svg" width="200" height="200" viewBox="0 0 200 200">
  <defs>
    <linearGradient id="goldGrad" x1="0%" y1="100%" x2="100%" y2="0%">
      <stop offset="0%" stop-color="#D4AF37"/>
      <stop offset="35%" stop-color="#FDF3CE"/>
      <stop offset="65%" stop-color="#D4AF37"/>
      <stop offset="100%" stop-color="#FDF3CE"/>
    </linearGradient>
    <linearGradient id="mysticGrad" x1="0%" y1="0%" x2="100%" y2="100%">
      <stop offset="0%" stop-color="#F1C4E1"/>
      <stop offset="50%" stop-color="#D4B5E8"/>
      <stop offset="100%" stop-color="#A2C2E8"/>
    </linearGradient>
    <radialGradient id="glow" cx="50%" cy="50%" r="50%">
      <stop offset="0%" stop-color="#FDF3CE" stop-opacity="0.6"/>
      <stop offset="100%" stop-color="#FDF3CE" stop-opacity="0"/>
    </radialGradient>
  </defs>
  <g transform="translate(100, 100)">
    <path d="M -30 55 Q 0 40 30 55 L 45 75 Q 0 85 -45 75 Z" fill="url(#goldGrad)"/><path d="M -20 75 L 20 75 L 30 85 L -30 85 Z" fill="#D4AF37"/><circle cx="0" cy="-15" r="60" fill="url(#glow)"/><circle cx="0" cy="-15" r="60" fill="url(#mysticGrad)" opacity="0.7" stroke="url(#goldGrad)" stroke-width="4"/><path d="M -40 -35 A 40 40 0 0 1 0 -65" fill="none" stroke="#ffffff" stroke-width="5" stroke-linecap="round" opacity="0.6"/><path d="M 20 -55 Q 20 -40 35 -40 Q 20 -40 20 -25 Q 20 -40 5 -40 Q 20 -40 20 -55 Z" fill="#ffffff" opacity="0.8"/> <path d="M -20 10 Q -20 20 -10 20 Q -20 20 -20 30 Q -20 20 -30 20 Q -20 20 -20 10 Z" fill="#ffffff" opacity="0.8"/>
  </g>
</svg>
