<svg xmlns="http://www.w3.org/2000/svg" width="200" height="200" viewBox="0 0 200 200">
  <defs>
    <linearGradient id="goldGrad" x1="0%" y1="100%" x2="100%" y2="0%">
      <stop offset="0%" stop-color="#D4AF37"/>
      <stop offset="35%" stop-color="#FDF3CE"/>
      <stop offset="65%" stop-color="#D4AF37"/>
      <stop offset="100%" stop-color="#FDF3CE"/>
    </linearGradient>
    <linearGradient id="mysticGrad" x1="0%" y1="0%" x2="100%" y2="100%">
      <stop offset="0%" stop-color="#F1C4E1"/>
      <stop offset="50%" stop-color="#D4B5E8"/>
      <stop offset="100%" stop-color="#A2C2E8"/>
    </linearGradient>
    <radialGradient id="glow" cx="50%" cy="50%" r="50%">
      <stop offset="0%" stop-color="#FDF3CE" stop-opacity="0.6"/>
      <stop offset="100%" stop-color="#FDF3CE" stop-opacity="0"/>
    </radialGradient>
  </defs>
  <g transform="translate(100, 100)">
    <rect x="-40" y="-55" width="80" height="110" rx="6" fill="url(#mysticGrad)" stroke="url(#goldGrad)" stroke-width="4"/><line x1="-28" y1="-55" x2="-28" y2="55" stroke="url(#goldGrad)" stroke-width="4"/><circle cx="10" cy="0" r="16" fill="none" stroke="url(#goldGrad)" stroke-width="3"/><circle cx="10" cy="0" r="5" fill="url(#goldGrad)"/><path d="M 10 -20 L 10 20 M -10 0 L 30 0" stroke="url(#goldGrad)" stroke-width="2"/><path d="M 40 -52 Q 40 -40 52 -40 Q 40 -40 40 -28 Q 40 -40 28 -40 Q 40 -40 40 -52 Z" fill="#ffffff" opacity="0.8"/> <path d="M -50 10 Q -50 20 -40 20 Q -50 20 -50 30 Q -50 20 -60 20 Q -50 20 -50 10 Z" fill="#ffffff" opacity="0.8"/>
  </g>
</svg>
