<svg xmlns="http://www.w3.org/2000/svg" width="200" height="200" viewBox="0 0 200 200">
  <defs>
    <linearGradient id="goldGrad" x1="0%" y1="100%" x2="100%" y2="0%">
      <stop offset="0%" stop-color="#D4AF37"/>
      <stop offset="35%" stop-color="#FDF3CE"/>
      <stop offset="65%" stop-color="#D4AF37"/>
      <stop offset="100%" stop-color="#FDF3CE"/>
    </linearGradient>
    <linearGradient id="mysticGrad" x1="0%" y1="0%" x2="100%" y2="100%">
      <stop offset="0%" stop-color="#F1C4E1"/>
      <stop offset="50%" stop-color="#D4B5E8"/>
      <stop offset="100%" stop-color="#A2C2E8"/>
    </linearGradient>
    <radialGradient id="glow" cx="50%" cy="50%" r="50%">
      <stop offset="0%" stop-color="#FDF3CE" stop-opacity="0.6"/>
      <stop offset="100%" stop-color="#FDF3CE" stop-opacity="0"/>
    </radialGradient>
  </defs>
  <g transform="translate(100, 100)">
    <path d="M -15 -55 A 60 60 0 1 1 -15 55 A 45 45 0 1 0 -15 -55 Z" fill="url(#mysticGrad)" stroke="url(#goldGrad)" stroke-width="3"/><circle cx="25" cy="-10" r="14" fill="url(#goldGrad)"/><ellipse cx="25" cy="-10" rx="28" ry="6" fill="none" stroke="#ffffff" stroke-width="3" transform="rotate(-20 25 -10)"/><path d="M -40 -12 Q -40 0 -28 0 Q -40 0 -40 12 Q -40 0 -52 0 Q -40 0 -40 -12 Z" fill="#ffffff" opacity="0.8"/> <path d="M 15 23 L 17.1 27.9 L 22 27.9 L 17.8 31.4 L 19.2 35.6 L 15 33.5 L 10.8 35.6 L 12.2 31.4 L 8 27.9 L 12.9 27.9 Z" fill="url(#goldGrad)"/> <path d="M 45 5 L 46.5 8.5 L 50 8.5 L 47.0 11.0 L 48.0 14.0 L 45 12.5 L 42.0 14.0 L 43.0 11.0 L 40 8.5 L 43.5 8.5 Z" fill="url(#goldGrad)"/>
  </g>
</svg>
