<svg xmlns="http://www.w3.org/2000/svg" width="200" height="200" viewBox="0 0 200 200">
  <defs>
    <linearGradient id="goldGrad" x1="0%" y1="100%" x2="100%" y2="0%">
      <stop offset="0%" stop-color="#D4AF37"/>
      <stop offset="35%" stop-color="#FDF3CE"/>
      <stop offset="65%" stop-color="#D4AF37"/>
      <stop offset="100%" stop-color="#FDF3CE"/>
    </linearGradient>
    <linearGradient id="mysticGrad" x1="0%" y1="0%" x2="100%" y2="100%">
      <stop offset="0%" stop-color="#F1C4E1"/>
      <stop offset="50%" stop-color="#D4B5E8"/>
      <stop offset="100%" stop-color="#A2C2E8"/>
    </linearGradient>
    <radialGradient id="glow" cx="50%" cy="50%" r="50%">
      <stop offset="0%" stop-color="#FDF3CE" stop-opacity="0.6"/>
      <stop offset="100%" stop-color="#FDF3CE" stop-opacity="0"/>
    </radialGradient>
  </defs>
  <g transform="translate(100, 100)">
    <path d="M -50 -40 Q -50 -60 -30 -60 L 30 -60 Q 50 -60 50 -40 L 50 40 Q 50 60 30 60 L -30 60 Q -50 60 -50 40 Z" fill="url(#mysticGrad)" stroke="url(#goldGrad)" stroke-width="4"/><path d="M -50 -40 Q -30 -40 -30 -60 M -50 40 Q -30 40 -30 60" fill="none" stroke="url(#goldGrad)" stroke-width="4"/><path d="M 50 -40 Q 30 -40 30 -60 M 50 40 Q 30 40 30 60" fill="none" stroke="url(#goldGrad)" stroke-width="4"/><path d="M -15 -25 A 25 25 0 1 1 -15 25 A 18 18 0 1 0 -15 -25 Z" fill="url(#goldGrad)"/><path d="M 15 -16 L 16.8 -11.8 L 21 -11.8 L 17.4 -8.8 L 18.6 -5.199999999999999 L 15 -7.0 L 11.4 -5.199999999999999 L 12.6 -8.8 L 9 -11.8 L 13.2 -11.8 Z" fill="url(#goldGrad)"/> <path d="M 5 11 L 6.2 13.8 L 9 13.8 L 6.6 15.8 L 7.4 18.2 L 5 17.0 L 2.6 18.2 L 3.4 15.8 L 1 13.8 L 3.8 13.8 Z" fill="url(#goldGrad)"/> <path d="M -20 -3 L -19.1 -0.8999999999999999 L -17 -0.8999999999999999 L -18.8 0.6000000000000001 L -18.2 2.4000000000000004 L -20 1.5 L -21.8 2.4000000000000004 L -21.2 0.6000000000000001 L -23 -0.8999999999999999 L -20.9 -0.8999999999999999 Z" fill="url(#goldGrad)"/>
  </g>
</svg>
