<svg xmlns="http://www.w3.org/2000/svg" width="200" height="200" viewBox="0 0 200 200">
  <defs>
    <linearGradient id="goldGrad" x1="0%" y1="100%" x2="100%" y2="0%">
      <stop offset="0%" stop-color="#D4AF37"/>
      <stop offset="35%" stop-color="#FDF3CE"/>
      <stop offset="65%" stop-color="#D4AF37"/>
      <stop offset="100%" stop-color="#FDF3CE"/>
    </linearGradient>
    <linearGradient id="mysticGrad" x1="0%" y1="0%" x2="100%" y2="100%">
      <stop offset="0%" stop-color="#F1C4E1"/>
      <stop offset="50%" stop-color="#D4B5E8"/>
      <stop offset="100%" stop-color="#A2C2E8"/>
    </linearGradient>
    <radialGradient id="glow" cx="50%" cy="50%" r="50%">
      <stop offset="0%" stop-color="#FDF3CE" stop-opacity="0.6"/>
      <stop offset="100%" stop-color="#FDF3CE" stop-opacity="0"/>
    </radialGradient>
  </defs>
  <g transform="translate(100, 100)">
    <path d="M -15 -60 A 60 60 0 1 1 -15 60 A 45 45 0 1 0 -15 -60 Z" fill="url(#goldGrad)"/><path d="M 5 50 C -40 20 40 -20 5 -55" fill="none" stroke="url(#mysticGrad)" stroke-width="4" stroke-linecap="round"/><path d="M 0 -10 Q -20 -15 -10 -25 Q 5 -20 0 -10 Z" fill="url(#mysticGrad)"/><path d="M -15 15 Q -30 25 -25 35 Q -10 30 -15 15 Z" fill="url(#mysticGrad)"/><path d="M 15 -35 Q 30 -45 35 -30 Q 20 -20 15 -35 Z" fill="url(#mysticGrad)"/><path d="M 30 -10 Q 30 0 40 0 Q 30 0 30 10 Q 30 0 20 0 Q 30 0 30 -10 Z" fill="#ffffff" opacity="0.8"/> <path d="M -30 -38 Q -30 -30 -22 -30 Q -30 -30 -30 -22 Q -30 -30 -38 -30 Q -30 -30 -30 -38 Z" fill="#ffffff" opacity="0.8"/>
  </g>
</svg>
