<svg xmlns="http://www.w3.org/2000/svg" width="200" height="200" viewBox="0 0 200 200">
  <defs>
    <linearGradient id="goldGrad" x1="0%" y1="100%" x2="100%" y2="0%">
      <stop offset="0%" stop-color="#D4AF37"/>
      <stop offset="35%" stop-color="#FDF3CE"/>
      <stop offset="65%" stop-color="#D4AF37"/>
      <stop offset="100%" stop-color="#FDF3CE"/>
    </linearGradient>
    <linearGradient id="mysticGrad" x1="0%" y1="0%" x2="100%" y2="100%">
      <stop offset="0%" stop-color="#F1C4E1"/>
      <stop offset="50%" stop-color="#D4B5E8"/>
      <stop offset="100%" stop-color="#A2C2E8"/>
    </linearGradient>
    <radialGradient id="glow" cx="50%" cy="50%" r="50%">
      <stop offset="0%" stop-color="#FDF3CE" stop-opacity="0.6"/>
      <stop offset="100%" stop-color="#FDF3CE" stop-opacity="0"/>
    </radialGradient>
  </defs>
  <g transform="translate(100, 100)">
    <circle cx="-30" cy="-30" r="22" fill="url(#mysticGrad)" stroke="url(#goldGrad)" stroke-width="5"/><circle cx="-30" cy="-30" r="8" fill="#ffffff" opacity="0.5"/><path d="M -15 -15 L 45 45 L 65 25 L 75 35 L 55 55 L 45 45 L 35 55 L -5 -5" fill="none" stroke="url(#goldGrad)" stroke-width="7" stroke-linejoin="round"/><path d="M -50 -60 Q -50 -50 -40 -50 Q -50 -50 -50 -40 Q -50 -50 -60 -50 Q -50 -50 -50 -60 Z" fill="#ffffff" opacity="0.8"/> <path d="M 60 48 Q 60 60 72 60 Q 60 60 60 72 Q 60 60 48 60 Q 60 60 60 48 Z" fill="#ffffff" opacity="0.8"/>
  </g>
</svg>
